<svg xmlns="http://www.w3.org/2000/svg" width="84" height="73" viewBox="0 0 84 73"><path fill="#ffc600" d="M.98 72.73h19.45V.28H.98zm2.97-6.96H8.1v-1.13H3.95v-2.86H8.1v-1.12H3.95v-2.55H8.1v-1.13H3.95v-2.53h8.55v-1.81H3.95v-3.08H8.1v-1.13H3.95v-2.85H8.1v-1.13H3.95v-2.54H8.1v-1.13H3.95v-2.54h8.55v-1.8H3.95v-3.65H8.1v-1.12H3.95v-2.85H8.1v-1.13H3.95v-2.55H8.1v-1.13H3.95v-2.53h8.55v-1.81H3.95v-2.79h5.27v-1.13H3.95V12.9h5.27v-1.13H3.95V9.22h5.27V8.1H3.95V3.38h13.51v66.25H3.95zM25.75.01V73h58.24zM28.72 68h4.14v-1.11h-4.14V64.1h4.14V63h-4.14v-2.49h4.14v-1.1h-4.14v-2.48h8.55v-1.76h-8.55v-3.02h4.14v-1.1h-4.14v-2.79h4.14v-1.1h-4.14v-2.5h4.14v-1.1h-4.14v-2.47h8.55v-1.77h-8.55v-3.56h4.14v-1.1h-4.14v-2.79h4.14v-1.1h-4.14v-2.49h4.14v-1.1h-4.14V24.7h8.55v-1.76h-8.55v-2.73h5.27v-1.1h-5.27v-2.79h5.27v-1.11h-5.27V8.54l49.03 61.43H28.72zm10.37-32.05v25.07h20zm2.97 8.52l10.79 13.52H42.06z"/></svg>