<svg xmlns="http://www.w3.org/2000/svg" width="75" height="73" viewBox="0 0 75 73"><path fill="#ffc600" d="M72.97 12.41L69.7 9.17a5.32 5.32 0 0 0-7.63 0l-9.81 9.72L35.91 0H5.93C2.93 0 .48 2.43.48 5.4v62.06c0 2.97 2.45 5.4 5.45 5.4h40.88c3 0 5.45-2.43 5.45-5.4V40.48l20.71-20.51a5.19 5.19 0 0 0 0-7.56zM35.91 4.05l12.8 14.84H38.64c-1.36 0-2.72-1.35-2.72-2.7zm13.62 63.41c0 1.35-1.09 2.7-2.72 2.7H5.93a2.72 2.72 0 0 1-2.72-2.7V5.4c0-1.35 1.09-2.7 2.72-2.7h27.25v13.49c0 2.97 2.46 5.4 5.45 5.4h10.9L22.28 48.57l-2.72 13.5 13.62-2.7 16.35-16.19zm-24.8-17.27l6.82 6.75-8.45 1.62zm9 4.86l-7.09-7.01 30.52-30.23 7.1 7.02zm37.33-36.97l-4.63 4.59-7.09-7.02 4.64-4.59a2.65 2.65 0 0 1 3.81 0l3.27 3.24a2.6 2.6 0 0 1 0 3.78z"/></svg>