<svg xmlns="http://www.w3.org/2000/svg" width="52" height="64" viewBox="0 0 52 64"><path fill="#e7bb22" d="M15.82 26.09c0-.87-.7-1.58-1.58-1.58H1.58a1.58 1.58 0 0 0 0 3.17h12.66c.87 0 1.58-.71 1.58-1.59zm34.6-1.58H37.76a1.58 1.58 0 0 0 0 3.17h12.66a1.59 1.59 0 0 0 0-3.17zM26 15.88c.87 0 1.58-.71 1.58-1.58V1.59C27.58.71 26.87 0 26 0c-.87 0-1.58.71-1.58 1.59V14.3c0 .87.71 1.58 1.58 1.58zm8.3 3.46c.42 0 .81-.16 1.13-.46l8.96-9a1.58 1.58 0 0 0-2.24-2.24l-8.96 8.99a1.6 1.6 0 0 0 0 2.25c.31.3.72.46 1.12.46zm-17.73-.46a1.6 1.6 0 0 0 2.24 0 1.6 1.6 0 0 0 0-2.25L9.85 7.64A1.58 1.58 0 1 0 7.6 9.88zM44.98 36.1a6.5 6.5 0 0 0-4.25-1.6H31.7v-6.41c0-3.07-.91-5.3-2.71-6.63-2.85-2.09-6.7-.92-6.88-.86-.65.21-1.1.82-1.1 1.5v7.73c0 2.35-1.12 4.35-3.35 5.95a13.32 13.32 0 0 1-3.63 1.83l-.16.04a3.23 3.23 0 0 0-2.43-1.09h-6a3.26 3.26 0 0 0-3.26 3.26v19.77a3.27 3.27 0 0 0 3.25 3.26h6.03c.8 0 1.53-.29 2.08-.77A6.62 6.62 0 0 0 18.17 64h18.86c1.9 0 3.57-.46 4.85-1.32a7.02 7.02 0 0 0 2.93-5.12l2.44-15.19a6.83 6.83 0 0 0-2.27-6.27zM11.54 59.59c0 .05-.03.09-.09.09H5.42a.09.09 0 0 1-.09-.09V39.82c0-.05.04-.09.1-.09h6.02c.06 0 .1.04.1.09zm32.59-17.71L41.69 57.1l-.01.07c-.1.91-.45 3.67-4.65 3.67H18.17a3.5 3.5 0 0 1-3.43-2.94c0-.07-.02-.14-.04-.19V40.72l.1-.03.06-.01c.1-.03 2.33-.66 4.56-2.26 3.1-2.21 4.74-5.18 4.74-8.59v-6.42c.87-.09 2.06-.05 2.95.6.94.7 1.42 2.07 1.42 4.07v7.99c0 .87.7 1.58 1.58 1.58h10.62c.8 0 1.57.31 2.2.84.95.82 1.4 2.11 1.2 3.39z"/></svg>