<svg xmlns="http://www.w3.org/2000/svg" width="48" height="80" viewBox="0 0 48 80"><path fill="#e7bb22" d="M8 20v-2h17v2zm0-7v-3h17v3zm40 4.5v45c0 2.75-2.27 5-5.05 5h-5.06V80l-6.31-6.25L25.26 80V67.5H5.06a5.04 5.04 0 0 1-5.06-5V5c0-2.75 2.27-5 5.05-5h27.8zM32.84 15c0 1.25 1.27 2.5 2.53 2.5h9.35L32.84 3.75zm2.53 49.25c-1.26.5-2.53.75-3.8.75-1.25 0-2.52-.25-3.78-.75V74l3.79-3.75L35.37 74zm2.52-8c0-3.5-2.77-6.25-6.31-6.25a6.22 6.22 0 0 0-6.32 6.25c0 3.5 2.78 6.25 6.32 6.25a6.22 6.22 0 0 0 6.31-6.25zM45.47 20h-10.1a5.04 5.04 0 0 1-5.05-5V2.5H5.05A2.52 2.52 0 0 0 2.53 5v57.5c0 1.5 1.26 2.5 2.52 2.5h20.21v-2.75a8.24 8.24 0 0 1-2.52-6 8.9 8.9 0 0 1 8.84-8.75c4.8 0 8.84 4 8.84 8.75 0 2.25-1.01 4.5-2.52 6V65h5.05a2.52 2.52 0 0 0 2.52-2.5zM8 28v-3h32v3zm0 15v-3h32v3zm0-8v-2h32v2z"/></svg>