<svg xmlns="http://www.w3.org/2000/svg" width="20" height="18" viewBox="0 0 20 18"><path fill="#ffc600" d="M19.48 3.42l-2.17-.46A4.36 4.36 0 0 0 13.14 0a4.37 4.37 0 0 0-4.16 2.94l-2.14.45-6.03-1.3a.7.7 0 0 0-.56.13.63.63 0 0 0-.25.5v13.3c0 .31.22.57.52.63l6.17 1.33.15.02.14-.02 6.18-1.3 6.03 1.3.14.02a.65.65 0 0 0 .67-.65V4.05c0-.3-.22-.56-.52-.63zM6.17 16.55l-4.83-1.04V3.53l4.83 1.04zm6.97-15.26a2.98 2.98 0 0 1 3.03 2.92c0 2.15-2.09 4.43-3.03 5.33-.93-.9-3.02-3.17-3.02-5.33a2.98 2.98 0 0 1 3.02-2.92zM7.51 16.55V4.57l1.27-.27c.07 2.91 2.9 5.68 3.71 6.42v4.78zm11.15 0l-4.83-1.04v-4.79c.85-.78 3.6-3.54 3.67-6.4l1.16.25zM14.94 4.21c0-.97-.8-1.75-1.8-1.75-.99 0-1.8.78-1.8 1.75 0 .96.81 1.74 1.8 1.74 1 0 1.8-.78 1.8-1.74zm-2.26 0a.47.47 0 0 1 .93 0c0 .25-.21.45-.47.45a.46.46 0 0 1-.46-.45z"/></svg>