<svg xmlns="http://www.w3.org/2000/svg" width="54" height="70" viewBox="0 0 54 70"><path fill="#ffc600" d="M27.32.44C12.62.44.65 12.03.65 26.28c0 5.38 1.69 10.54 4.89 14.92 3 4.1 7.1 7.23 11.88 9.08l1.13 14.8h4.61l1.12 4.32h6.09l1.11-4.32h4.61l1.14-14.8a26.48 26.48 0 0 0 11.88-9.08A25.15 25.15 0 0 0 54 26.28C54 12.03 42.03.44 27.32.44zM24.77 50.1l-6.15-21.3.49.4c.69.59 1.54 1.33 3.2 1.33 1.64 0 2.5-.74 3.2-1.33.57-.5.95-.83 1.8-.83.86 0 1.25.33 1.82.83.7.59 1.55 1.33 3.2 1.33 1.66 0 2.52-.74 3.2-1.33l.5-.41-6.16 21.31zM35 52.12l-.18 2.3h-15l-.17-2.3zm-15.01 4.32h14.67l-.17 2.3H20.16zm8.75 10.93H25.9l-.6-2.29h4.02zm-8.25-4.32l-.17-2.29h14.01l-.18 2.29zM47.4 40.03a24.52 24.52 0 0 1-11.52 8.59l-.63.22-.1 1.26h-3.1l7.42-25.71-2-.54-.74 2.54c-1.26.16-1.98.78-2.58 1.29-.58.5-.96.83-1.81.83-.86 0-1.24-.33-1.82-.83-.69-.59-1.55-1.33-3.2-1.33-1.65 0-2.51.74-3.2 1.33-.58.5-.96.83-1.82.83-.85 0-1.23-.33-1.8-.83-.6-.51-1.33-1.13-2.58-1.29l-.73-2.54-2.02.54L22.6 50.1h-3.1l-.1-1.26-.63-.22a24.53 24.53 0 0 1-11.53-8.59 23.19 23.19 0 0 1-4.5-13.75c0-13.13 11.03-23.82 24.58-23.82 13.56 0 24.59 10.69 24.59 23.82 0 4.96-1.56 9.71-4.5 13.75zM32.63 7.46c1.08.29 2.15.67 3.17 1.13l.88-1.84c-1.13-.51-2.3-.92-3.5-1.24zm6.68.69l-1.13 1.71a19.6 19.6 0 0 1 8.83 12.32l2.04-.43a21.69 21.69 0 0 0-9.74-13.6z"/></svg>