<svg xmlns="http://www.w3.org/2000/svg" width="59" height="79" viewBox="0 0 59 79"><path fill="#ffc600" d="M57.75 28.43l-4.14-5.4.88-6.74c.1-.78-.33-1.52-1.05-1.82l-6.3-2.6-2.61-6.29a1.72 1.72 0 0 0-1.82-1.04l-6.77.88-5.41-4.14a1.74 1.74 0 0 0-2.1 0l-5.42 4.14-6.76-.88c-.78-.1-1.52.32-1.82 1.04l-2.6 6.29-6.31 2.6a1.73 1.73 0 0 0-1.05 1.82l.88 6.74-4.14 5.4a1.73 1.73 0 0 0 0 2.1l4.14 5.4-.88 6.74c-.1.77.33 1.52 1.05 1.82l6.3 2.6 2.61 6.28c.23.56.73.94 1.3 1.04v22.87c0 .62.35 1.2.9 1.5a1.7 1.7 0 0 0 1.75-.05l11.1-7.02 11.1 7.02a1.72 1.72 0 0 0 1.75.05c.55-.3.9-.88.9-1.5V54.41c.57-.1 1.07-.48 1.3-1.04l2.6-6.28 6.31-2.6a1.73 1.73 0 0 0 1.05-1.82l-.88-6.74 4.14-5.4c.48-.62.48-1.48 0-2.1zM30.4 68.22a1.72 1.72 0 0 0-1.85 0l-9.36 5.93V54.04l3.82-.5 5.42 4.13a1.7 1.7 0 0 0 2.1 0l5.41-4.13 3.83.5v20.11zM50.43 34.4c-.28.36-.4.82-.34 1.27l.8 6.14-5.74 2.37c-.42.17-.75.51-.93.93l-2.38 5.73-6.15-.81c-.46-.06-.91.07-1.28.34l-4.93 3.77-4.93-3.77c-.3-.23-.68-.35-1.05-.35l-.23.01-6.16.81-2.37-5.73a1.71 1.71 0 0 0-.94-.93l-5.74-2.37.8-6.14c.07-.45-.05-.91-.33-1.27l-3.78-4.92 3.78-4.92c.28-.36.4-.82.34-1.27l-.8-6.14 5.73-2.37c.43-.18.76-.51.94-.93l2.37-5.73 6.16.81c.46.05.91-.07 1.28-.34l4.93-3.77 4.93 3.77c.37.27.82.39 1.28.34l6.15-.81 2.38 5.73c.18.42.51.75.94.93l5.74 2.37-.81 6.14c-.06.45.06.91.34 1.27l3.78 4.92zm-31.5-16.03c.39 0 .78-.13 1.1-.39a14.97 14.97 0 0 1 9.45-3.37 1.72 1.72 0 1 0 0-3.44 18.4 18.4 0 0 0-11.64 4.15 1.71 1.71 0 0 0 1.1 3.05zm16.7-6.14a1.72 1.72 0 1 0-1.15 3.24 14.9 14.9 0 0 1 9.9 14.01 14.9 14.9 0 0 1-14.9 14.86 14.9 14.9 0 0 1-14.9-14.86c0-2.92.84-5.74 2.44-8.16a1.73 1.73 0 0 0-2.89-1.9 18.22 18.22 0 0 0-3.01 10.06 18.36 18.36 0 0 0 36.72 0c0-7.73-4.9-14.66-12.2-17.25z"/></svg>