<svg xmlns="http://www.w3.org/2000/svg" width="53" height="73" viewBox="0 0 53 73"><path fill="#e7bb22" d="M52.67 26.34l-3.76-4.98.8-6.23c.1-.71-.3-1.4-.95-1.67l-5.73-2.4-2.37-5.8A1.58 1.58 0 0 0 39 4.29l-6.14.82-4.93-3.82a1.57 1.57 0 0 0-1.9 0L21.1 5.11l-6.15-.82c-.7-.09-1.38.31-1.65.97l-2.38 5.8-5.72 2.4c-.66.27-1.05.96-.96 1.67l.8 6.23-3.76 4.98a1.6 1.6 0 0 0 0 1.93l3.77 4.99-.8 6.22c-.1.71.3 1.4.95 1.67l5.72 2.41 2.37 5.79c.21.52.67.87 1.19.96v21.1c0 .58.31 1.11.81 1.39.5.28 1.12.26 1.6-.05l10.08-6.47 10.08 6.47a1.51 1.51 0 0 0 1.6.05c.5-.28.81-.81.81-1.39v-21.1c.52-.09.98-.44 1.19-.96l2.37-5.79 5.73-2.41c.65-.27 1.04-.96.95-1.67l-.8-6.22 3.76-4.99a1.6 1.6 0 0 0 0-1.93zM27.82 63.05a1.55 1.55 0 0 0-1.68 0l-8.51 5.47V49.97l3.48-.46 4.92 3.81a1.54 1.54 0 0 0 1.9 0l4.93-3.81 3.47.46v18.55zm18.2-31.2a1.6 1.6 0 0 0-.3 1.17l.73 5.67-5.22 2.18c-.39.16-.7.47-.85.86l-2.16 5.28-5.6-.74c-.4-.05-.83.06-1.15.32l-4.49 3.47-4.48-3.47a1.52 1.52 0 0 0-.95-.33l-.2.01-5.6.74-2.17-5.28c-.15-.39-.46-.7-.84-.86l-5.22-2.18.73-5.67a1.6 1.6 0 0 0-.3-1.17L4.5 27.31l3.43-4.54c.25-.34.37-.76.31-1.17l-.73-5.67 5.22-2.19c.38-.16.69-.47.84-.86l2.16-5.28 5.6.74c.41.06.83-.06 1.16-.31l4.48-3.48 4.49 3.48c.33.25.74.37 1.15.31l5.6-.74 2.16 5.28c.16.39.46.7.85.86l5.22 2.19-.74 5.67c-.05.41.06.83.31 1.17l3.43 4.54zM17.4 17.06c.35 0 .7-.12 1-.36a13.44 13.44 0 0 1 8.58-3.11c.87 0 1.57-.71 1.57-1.59 0-.88-.7-1.59-1.57-1.59-3.85 0-7.6 1.36-10.58 3.83a1.6 1.6 0 0 0-.21 2.24c.3.38.76.58 1.2.58zm15.18-5.67c-.82-.3-1.72.13-2 .96-.3.83.13 1.74.94 2.03 5.39 1.94 9 7.14 9 12.93 0 7.56-6.07 13.71-13.54 13.71a13.64 13.64 0 0 1-13.55-13.71c0-2.69.77-5.3 2.23-7.53a1.6 1.6 0 0 0-.45-2.2 1.55 1.55 0 0 0-2.17.45 16.97 16.97 0 0 0-2.74 9.28c0 9.31 7.48 16.89 16.68 16.89a16.8 16.8 0 0 0 16.69-16.89c0-7.13-4.46-13.53-11.1-15.92z"/></svg>