<svg xmlns="http://www.w3.org/2000/svg" width="62" height="59" viewBox="0 0 62 59"><path fill="#e7bb22" d="M46.52 59c-.99 0-1.97-.24-2.85-.71L31.5 51.76l-12.17 6.53a6.17 6.17 0 0 1-6.26-.34 5.78 5.78 0 0 1-2.46-5.71L13 38.04 2.7 27.8a5.68 5.68 0 0 1-1.4-5.93 5.9 5.9 0 0 1 4.75-3.9l13.99-2.07 6.08-12.58A5.98 5.98 0 0 1 31.5 0c2.29 0 4.4 1.3 5.37 3.32l6.08 12.58 14 2.08a5.88 5.88 0 0 1 4.73 3.88 5.7 5.7 0 0 1-1.39 5.94L50 38.04l2.39 14.2a5.8 5.8 0 0 1-2.46 5.71 6.02 6.02 0 0 1-3.4 1.05zM31.5 47.93c.3 0 .59.07.85.21l13.02 6.99c.79.42 1.8.36 2.53-.14a2.17 2.17 0 0 0 .94-2.16L46.3 37.72c-.1-.57.1-1.15.5-1.56l10.95-10.9c.6-.59.8-1.45.53-2.23-.27-.8-.99-1.38-1.86-1.51l-14.94-2.21a1.8 1.8 0 0 1-1.35-1l-6.5-13.43a2.36 2.36 0 0 0-2.13-1.3c-.91 0-1.75.51-2.13 1.3l-6.5 13.43a1.8 1.8 0 0 1-1.35 1L6.58 21.52c-.86.13-1.59.72-1.86 1.51s-.07 1.64.53 2.23l10.95 10.9c.4.41.6.99.5 1.56l-2.54 15.11c-.14.84.22 1.67.95 2.17a2.5 2.5 0 0 0 2.52.13l13.02-6.99c.26-.14.56-.21.85-.21zM11.8 26.02a.9.9 0 0 1-.15-1.78l.6-.1a.9.9 0 1 1 .28 1.77l-.6.1-.14.01zm3.3-.54a.9.9 0 0 1-.17-1.77l9.73-1.87 3.67-8.39a.9.9 0 1 1 1.65.71l-3.86 8.83a.9.9 0 0 1-.66.52l-10.2 1.96-.16.01z"/></svg>