<svg xmlns="http://www.w3.org/2000/svg" width="18" height="17" viewBox="0 0 18 17"><path fill="#ffc600" d="M14.22 10.57a1.74 1.74 0 0 0-1.24-.56c-.46 0-.89.19-1.26.55l-1.16 1.13-.28-.15a4.73 4.73 0 0 1-.37-.18A12.52 12.52 0 0 1 6.9 8.68a7.4 7.4 0 0 1-1-1.52c.3-.27.59-.55.86-.82l.3-.3c.78-.75.78-1.72 0-2.47l-1-.98-.34-.34c-.22-.22-.45-.45-.69-.66a1.78 1.78 0 0 0-1.23-.53c-.45 0-.88.19-1.25.53v.01L1.29 2.82a2.6 2.6 0 0 0-.8 1.66 6.1 6.1 0 0 0 .47 2.65c.6 1.56 1.48 3.01 2.81 4.56a17.2 17.2 0 0 0 5.76 4.38c.84.39 1.97.85 3.23.93h.23a2.8 2.8 0 0 0 2.12-.88l.01-.02c.2-.22.42-.43.65-.64l.48-.47c.36-.36.55-.79.55-1.23 0-.44-.2-.87-.57-1.23zm1.31 3.76l-.44.43a9.3 9.3 0 0 0-.71.72c-.37.38-.81.56-1.38.56h-.17a8.26 8.26 0 0 1-2.87-.83A16.3 16.3 0 0 1 1.89 6.8a5 5 0 0 1-.4-2.24c.03-.42.2-.76.5-1.06l1.25-1.22a.86.86 0 0 1 .56-.25c.23 0 .42.13.54.25v.01c.23.2.45.41.67.64l.35.35 1 .97c.39.38.39.73 0 1.11l-.31.3c-.31.31-.6.6-.93.88l-.02.01a.71.71 0 0 0-.19.81l.01.04c.27.61.63 1.19 1.2 1.88a13.58 13.58 0 0 0 3.26 2.89l.45.24c.13.06.26.12.36.19l.05.02c.12.06.24.09.36.09.3 0 .5-.19.56-.25l1.25-1.22c.13-.12.33-.27.56-.27.23 0 .41.14.53.26l2.03 1.98c.38.36.38.74 0 1.12zM12.4 5.39c.7.68 1.15 1.53 1.32 2.46.04.24.25.4.49.4h.08a.5.5 0 0 0 .4-.56 5.7 5.7 0 0 0-4.66-4.53.5.5 0 0 0-.56.39c-.05.26.13.52.4.56.96.16 1.84.6 2.53 1.28zm2.83-2.75A9.43 9.43 0 0 0 10.18.09a.5.5 0 0 0-.57.4c-.05.26.13.51.4.55a8.45 8.45 0 0 1 4.52 2.28 7.98 7.98 0 0 1 2.34 4.39c.04.23.25.4.49.4l.08-.01a.48.48 0 0 0 .4-.55 9 9 0 0 0-2.61-4.91z"/></svg>