<svg xmlns="http://www.w3.org/2000/svg" width="59" height="59" viewBox="0 0 59 59"><path fill="#ffc600" d="M23.24 28.64H4.64A4.7 4.7 0 0 1 0 23.92V5.03A4.7 4.7 0 0 1 4.65.31h18.59a4.7 4.7 0 0 1 4.64 4.72v18.89a4.7 4.7 0 0 1-4.64 4.72zM4.64 2.2a2.81 2.81 0 0 0-2.78 2.83v18.89a2.81 2.81 0 0 0 2.79 2.83h18.59a2.81 2.81 0 0 0 2.79-2.83V5.03a2.81 2.81 0 0 0-2.8-2.83zm17.67 12.28h-7.44v7.55c0 .52-.41.95-.93.95a.94.94 0 0 1-.93-.95v-7.55h-6.5a.94.94 0 0 1-.93-.95c0-.52.41-.94.93-.94H13V5.98c0-.52.42-.95.93-.95.52 0 .93.43.93.95v6.61h7.44c.51 0 .93.42.93.94s-.42.95-.93.95zm31.6 14.16H35.32a4.69 4.69 0 0 1-4.65-4.72V5.03c0-2.6 2.09-4.72 4.65-4.72h18.59a4.7 4.7 0 0 1 4.65 4.72v18.89a4.7 4.7 0 0 1-4.65 4.72zM35.32 2.2a2.81 2.81 0 0 0-2.79 2.83v18.89a2.81 2.81 0 0 0 2.79 2.83h18.59a2.81 2.81 0 0 0 2.79-2.83V5.03a2.81 2.81 0 0 0-2.8-2.83zm15.3 18.19a.93.93 0 0 1-.65-.27l-5.26-5.35-5.26 5.35a.93.93 0 0 1-1.3 0 .96.96 0 0 1 0-1.34l5.25-5.34-4.6-4.68a.95.95 0 0 1 0-1.33.92.92 0 0 1 1.31 0l4.6 4.67 4.6-4.67a.92.92 0 0 1 1.32 0c.36.37.36.96 0 1.33l-4.6 4.68 5.26 5.34c.36.37.36.97 0 1.34a.93.93 0 0 1-.66.27zM23.25 58.86H4.64A4.7 4.7 0 0 1 0 54.14V35.25a4.7 4.7 0 0 1 4.65-4.72h18.59a4.7 4.7 0 0 1 4.64 4.72v18.89a4.7 4.7 0 0 1-4.64 4.72zM4.64 32.42a2.81 2.81 0 0 0-2.78 2.83v18.89a2.81 2.81 0 0 0 2.79 2.83h18.59a2.81 2.81 0 0 0 2.79-2.83V35.25a2.81 2.81 0 0 0-2.8-2.83zm17.67 10.39H6.5a.94.94 0 0 1-.93-.95c0-.52.41-.94.93-.94h15.8c.51 0 .93.42.93.94 0 .53-.42.95-.93.95zm29.74 2.83h-15.8a.93.93 0 0 1-.93-.94c0-.53.41-.95.93-.95h15.8c.51 0 .93.42.93.95 0 .52-.42.94-.93.94zm-29.74 3.78H6.5a.94.94 0 0 1-.93-.95c0-.52.41-.94.93-.94h15.8c.51 0 .93.42.93.94 0 .53-.42.95-.93.95zm31.6 9.44H35.32a4.69 4.69 0 0 1-4.65-4.72V35.25c0-2.6 2.09-4.72 4.65-4.72h18.59a4.7 4.7 0 0 1 4.65 4.72v18.89a4.7 4.7 0 0 1-4.65 4.72zM35.32 32.42a2.81 2.81 0 0 0-2.79 2.83v18.89a2.81 2.81 0 0 0 2.79 2.83h18.59a2.81 2.81 0 0 0 2.79-2.83V35.25a2.81 2.81 0 0 0-2.8-2.83z"/></svg>