<svg xmlns="http://www.w3.org/2000/svg" width="64" height="72" viewBox="0 0 64 72"><path fill="#ffc600" d="M59.68.13h-41.5a4.32 4.32 0 0 0-4.3 4.34v9.71A18.96 18.96 0 0 0 .23 32.41c0 8.65 5.78 15.96 13.65 18.23v16.71a4.33 4.33 0 0 0 4.3 4.34H52.1c.4 0 .78-.16 1.07-.45l10.38-10.45c.28-.29.44-.68.44-1.08V4.47c0-2.4-1.93-4.34-4.3-4.34zm-41.5 3.05h41.5c.7 0 1.28.58 1.28 1.29v4.61H16.9V4.47c0-.71.57-1.29 1.28-1.29zM3.26 32.41c0-8.77 7.08-15.91 15.79-15.91 8.7 0 15.79 7.14 15.79 15.91s-7.08 15.91-15.79 15.91c-8.7 0-15.79-7.14-15.79-15.91zm13.65 34.94v-16.1a18.72 18.72 0 0 0 16.33-6.39h9.3c.83 0 1.5-.68 1.5-1.53 0-.84-.67-1.53-1.5-1.53H35.4a18.92 18.92 0 0 0 2.4-7.75h4.73c.84 0 1.52-.68 1.52-1.52 0-.85-.68-1.53-1.52-1.53h-4.7a18.9 18.9 0 0 0-2.3-7.75h7a1.53 1.53 0 1 0 0-3.06h-9.1a18.73 18.73 0 0 0-16.52-6.62v-1.44h44.05v46.05h-6.07a4.33 4.33 0 0 0-4.31 4.34v6.11h-32.4c-.7 0-1.27-.57-1.27-1.28zm36.7-.88v-3.95c0-.71.58-1.28 1.28-1.28h3.92zM48.5 23.25h5.04a1.53 1.53 0 1 0 0-3.06h-5.04a1.53 1.53 0 1 0 0 3.06zm0 10.8h5.04c.84 0 1.52-.68 1.52-1.52 0-.85-.68-1.53-1.52-1.53h-5.04c-.84 0-1.52.68-1.52 1.53 0 .84.68 1.52 1.52 1.52zm0 10.81h5.04c.84 0 1.52-.68 1.52-1.53 0-.84-.68-1.53-1.52-1.53h-5.04c-.84 0-1.52.69-1.52 1.53 0 .85.68 1.53 1.52 1.53zm5.04 10.8c.84 0 1.52-.68 1.52-1.52 0-.85-.68-1.53-1.52-1.53h-14.2c-.83 0-1.5.68-1.5 1.53 0 .84.67 1.52 1.5 1.52zM30.83 24.7l-1.85-1.86a2.58 2.58 0 0 0-1.87-.78c-.7 0-1.37.27-1.86.78l-9.71 9.78-2.68-2.71a2.62 2.62 0 0 0-3.74 0l-1.85 1.87a2.68 2.68 0 0 0 0 3.76l6.4 6.44c.5.51 1.16.78 1.87.78.7 0 1.37-.27 1.86-.78l13.43-13.52a2.68 2.68 0 0 0 0-3.76zm-15.3 14.84L9.7 33.66l1.29-1.3 3.48 3.5c.59.59 1.55.59 2.14 0l10.5-10.58 1.3 1.3z"/></svg>