<svg xmlns="http://www.w3.org/2000/svg" width="74" height="73" viewBox="0 0 74 73"><path fill="#ffc600" d="M50.82 38.6a3.8 3.8 0 0 0-3.41-1.03L30.69 21.05l3.24-3.2a1.3 1.3 0 0 0 0-1.85l-.82-.81 12.3-12.16c.37-.36.49-.9.3-1.38A1.3 1.3 0 0 0 44.56.8a25.08 25.08 0 0 0-19.04 6.88l-.82-.81a1.33 1.33 0 0 0-1.88 0L9.62 19.91a1.3 1.3 0 0 0 0 1.85l1.27 1.26-2.33 2.3-1.27-1.25a1.33 1.33 0 0 0-1.88 0L.66 28.76a1.31 1.31 0 0 0 0 1.86l9.24 9.12a1.33 1.33 0 0 0 1.88 0l4.75-4.69a1.31 1.31 0 0 0 0-1.86l-1.27-1.25 2.33-2.3 1.27 1.25a1.33 1.33 0 0 0 1.88 0l3.24-3.2 16.71 16.52a3.74 3.74 0 0 0 1.04 3.37l19.83 19.59a3.8 3.8 0 0 0 5.37 0l3.71-3.67a3.73 3.73 0 0 0 0-5.31zM41.26 3.42l-10.03 9.91-3.83-3.79a22.37 22.37 0 0 1 13.86-6.12zM10.84 36.96l-7.36-7.27 2.87-2.84 7.36 7.27zm2.54-6.88l-2.94-2.9 2.33-2.3 2.94 2.9zm6.42-1.97l-7.36-7.27L23.76 9.65l7.35 7.27zm9.01-5.2l16.26 16.06-2.96 2.93-16.25-16.07zm39.95 38.73l-3.71 3.67a1.14 1.14 0 0 1-1.61 0L43.61 45.72a1.12 1.12 0 0 1 0-1.59l3.72-3.67c.21-.22.5-.33.8-.33.31 0 .6.11.81.33l19.82 19.59a1.1 1.1 0 0 1 0 1.59zM44.3 30.31a1.3 1.3 0 0 0 0 1.86c.52.51 1.36.51 1.88 0l2.83-2.8a15.03 15.03 0 0 0 4.49-12.42 8.4 8.4 0 0 1 4.85-8.56l-1.09 3.46A5.55 5.55 0 0 0 61 18.88a5.7 5.7 0 0 0 7.11-3.69l1.13-3.57a8.34 8.34 0 0 1-1.25 10.34 8.33 8.33 0 0 1-3.4 2.06c-2.4.77-4.59 2.08-6.33 3.8l-6.95 6.86a1.32 1.32 0 0 0 0 1.86 1.36 1.36 0 0 0 1.88 0l6.95-6.87a13.24 13.24 0 0 1 5.27-3.15 11.25 11.25 0 0 0 4.46-2.7 10.92 10.92 0 0 0-.26-15.87 1.34 1.34 0 0 0-2.17.57l-1.86 5.89a3.04 3.04 0 0 1-5.57.5 2.93 2.93 0 0 1-.21-2.28l1.84-5.82c.13-.44.03-.91-.27-1.26-.3-.34-.76-.5-1.22-.43a11.02 11.02 0 0 0-9.29 12.12c.43 3.77-.93 7.51-3.72 10.27zm-6.51 17.73c-3.36 3.33-5 7.85-4.48 12.42a8.38 8.38 0 0 1-4.85 8.56l1.09-3.46a5.63 5.63 0 0 0-3.74-7.04 5.77 5.77 0 0 0-4.33.39 5.6 5.6 0 0 0-2.78 3.3l-1.13 3.58a8.3 8.3 0 0 1 1.24-10.35 8.48 8.48 0 0 1 3.41-2.06c2.4-.76 4.59-2.07 6.33-3.79l7.06-6.98c.51-.51.51-1.34 0-1.85a1.35 1.35 0 0 0-1.88 0l-7.06 6.97a13.13 13.13 0 0 1-5.27 3.15 11.3 11.3 0 0 0-4.46 2.7 10.94 10.94 0 0 0 .26 15.87c.33.31.8.43 1.24.31.45-.11.8-.44.93-.87L21.23 63c.24-.77.77-1.39 1.49-1.76a3.02 3.02 0 0 1 4.29 3.54l-1.84 5.82a1.32 1.32 0 0 0 1.27 1.7l.21-.01a11.04 11.04 0 0 0 9.3-12.13c-.43-3.76.93-7.5 3.72-10.26a1.3 1.3 0 0 0 0-1.86 1.35 1.35 0 0 0-1.88 0z"/></svg>