<svg xmlns="http://www.w3.org/2000/svg" width="19" height="21" viewBox="0 0 19 21"><path fill="#ffc600" d="M4 9V8h10v1zm0-2V6h10v1zm14.01 1.78v9.91c0 .78-.65 1.42-1.44 1.42H1.45c-.8 0-1.44-.64-1.44-1.42V8.78l2.16-1.84V4.53c0-.78.64-1.41 1.44-1.41h2.95L9.01.99l2.45 2.13h2.95c.8 0 1.44.63 1.44 1.41v2.41zm-2.16.92l1.08-.92-1.08-.92zM7.57 3.12h2.8L9.02 1.91zm-4.68 7.22l2.3 1.98h7.64l2.3-2.05V4.53c0-.35-.36-.71-.72-.71H3.61c-.44 0-.72.29-.72.71zm7.56 4.1l1.51-1.41H5.98l1.59 1.41zM1.09 8.78l1.08.99V7.86zm5.4 5.66L.73 9.49v9.2c0 .21.07.36.21.5zm9.72 4.96l-5.04-4.25H6.85L1.8 19.4zm1.08-9.91l-5.76 4.95 5.55 4.75a.65.65 0 0 0 .21-.5zM4 11v-1h10v1z"/></svg>