<svg xmlns="http://www.w3.org/2000/svg" width="67" height="67" viewBox="0 0 67 67"><path fill="#e7bb22" d="M45.78 35.92a3.39 3.39 0 0 0-3.09-.95L27.55 19.73l2.94-2.95c.47-.47.47-1.24 0-1.71l-.75-.75 11.14-11.2c.33-.34.44-.84.28-1.29a1.2 1.2 0 0 0-1.05-.78A22.47 22.47 0 0 0 22.87 7.4l-.75-.75a1.18 1.18 0 0 0-.85-.35c-.32 0-.63.12-.85.35L8.47 18.68a1.21 1.21 0 0 0 0 1.71l1.15 1.16-2.11 2.12-1.15-1.16a1.2 1.2 0 0 0-1.7 0l-4.3 4.33c-.23.23-.36.54-.36.86 0 .32.13.63.35.85l8.37 8.42a1.19 1.19 0 0 0 1.7 0l4.3-4.33c.23-.22.36-.53.36-.85 0-.32-.13-.63-.36-.86l-1.15-1.16 2.11-2.12 1.15 1.16c.23.22.53.35.85.35.32 0 .63-.12.85-.35l2.94-2.95L36.6 41.09c-.21 1.09.1 2.26.94 3.11l17.96 18.06a3.39 3.39 0 0 0 4.86 0l3.36-3.38a3.49 3.49 0 0 0 0-4.9zM37.12 3.47l-9.08 9.14-3.47-3.5a20.1 20.1 0 0 1 12.55-5.64zM9.57 34.4l-6.66-6.7 2.6-2.62 6.66 6.71zm2.3-6.34l-2.66-2.68 2.11-2.12 2.66 2.68zm5.81-1.82l-6.66-6.71L21.27 9.22l6.66 6.71zm8.17-4.79l14.72 14.81-2.68 2.7-14.72-14.82zm36.18 35.72l-3.36 3.38a1.01 1.01 0 0 1-1.46 0L39.25 42.49c-.4-.41-.4-1.07 0-1.48l3.37-3.38a1.01 1.01 0 0 1 1.46 0L62.03 55.7c.4.4.4 1.06 0 1.47zm-22.16-28.9a1.23 1.23 0 0 0 0 1.72 1.2 1.2 0 0 0 1.7 0l2.58-2.59a14 14 0 0 0 4.06-11.45 7.82 7.82 0 0 1 4.4-7.9l-1 3.19A5.18 5.18 0 0 0 55 17.73c2.7.85 5.6-.68 6.44-3.4l1.03-3.3a7.76 7.76 0 0 1-1.13 9.54 7.63 7.63 0 0 1-3.08 1.9 14.45 14.45 0 0 0-5.74 3.5l-6.3 6.33a1.21 1.21 0 0 0 .86 2.07c.3 0 .62-.12.85-.36l6.29-6.33a11.88 11.88 0 0 1 4.77-2.9A10.22 10.22 0 0 0 66 14.92a10.14 10.14 0 0 0-3.2-7.27c-.3-.28-.73-.39-1.13-.29-.4.11-.72.42-.84.81l-1.68 5.43a2.74 2.74 0 1 1-5.24-1.64l1.67-5.37a1.21 1.21 0 0 0-1.34-1.55 9.97 9.97 0 0 0-5.03 2.38 10.25 10.25 0 0 0-3.4 8.8 11.6 11.6 0 0 1-3.37 9.47zm-5.89 16.35a14.02 14.02 0 0 0-4.06 11.45 7.82 7.82 0 0 1-4.4 7.9l1-3.19a5.18 5.18 0 0 0-7.31-6.13 5.12 5.12 0 0 0-2.52 3.04l-1.03 3.3a7.75 7.75 0 0 1-1.13-3.93 7.72 7.72 0 0 1 5.34-7.51 14.45 14.45 0 0 0 5.74-3.5l6.4-6.43c.46-.47.46-1.24 0-1.71a1.19 1.19 0 0 0-1.71 0l-6.39 6.43a11.88 11.88 0 0 1-4.77 2.9 10.25 10.25 0 0 0-7.01 9.86 10.14 10.14 0 0 0 3.2 7.27 1.2 1.2 0 0 0 1.97-.52l1.68-5.43c.22-.71.7-1.28 1.35-1.62a2.72 2.72 0 0 1 3.7 1.16c.34.65.4 1.4.19 2.1l-1.67 5.37A1.2 1.2 0 0 0 23.7 67l.2-.02a9.96 9.96 0 0 0 5.02-2.38 10.25 10.25 0 0 0 3.4-8.8 11.6 11.6 0 0 1 3.37-9.47 1.2 1.2 0 1 0-1.7-1.71z"/></svg>